<?xml version="1.0" standalone="no"?>
<!DOCTYPE svg PUBLIC "-//W3C//DTD SVG 1.1//EN" "http://www.w3.org/Graphics/SVG/1.1/DTD/svg11.dtd" >
<svg xmlns="http://www.w3.org/2000/svg">
<metadata>Generated by IcoMoon</metadata>
<defs>
<font id="xt-999" horiz-adv-x="1024">
<font-face units-per-em="1024" ascent="960" descent="-64" />
<missing-glyph horiz-adv-x="1024" />
<glyph unicode="&#x20;" horiz-adv-x="512" d="" />
<glyph unicode="&#xe900;" glyph-name="购物车" d="M364.8 320h403.2c19.2 0 38.4 12.8 44.8 32l76.8 332.8c6.4 12.8 0 25.6-6.4 38.4s-25.6 19.2-38.4 19.2h-550.4l-19.2 83.2h-121.6c-12.8 0-25.6-6.4-25.6-19.2s12.8-25.6 25.6-25.6h83.2l38.4-166.4c0 0 0 0 0 0 0-6.4 0-6.4 0-12.8l57.6-236.8c-25.6-12.8-51.2-44.8-51.2-83.2 0-25.6 12.8-44.8 25.6-57.6-12.8-12.8-25.6-38.4-25.6-57.6 0-44.8 38.4-83.2 83.2-83.2s83.2 32 83.2 76.8c0 12.8-6.4 25.6-6.4 38.4h275.2c-6.4-12.8-6.4-25.6-6.4-38.4 0-44.8 38.4-83.2 83.2-83.2s83.2 38.4 83.2 83.2c0 44.8-32 76.8-76.8 83.2 0 0-6.4 0-6.4 0h-428.8c0 0 0 0 0 0-19.2 0-38.4 19.2-38.4 38.4 6.4 19.2 19.2 38.4 38.4 38.4zM787.2 198.4c19.2 0 38.4-19.2 38.4-38.4s-12.8-32-38.4-32c-19.2 0-38.4 19.2-38.4 38.4s19.2 32 38.4 32zM364.8 128c-19.2 0-38.4 19.2-38.4 38.4s19.2 38.4 38.4 38.4c0 0 0 0 0 0s0 0 0 0c19.2 0 38.4-19.2 38.4-38.4 0-25.6-19.2-38.4-38.4-38.4zM768 364.8h-384l-51.2 224h486.4l-51.2-224zM844.8 697.6l-12.8-64h-512l-12.8 57.6 537.6 6.4z" />
<glyph unicode="&#xe901;" glyph-name="目录" d="M33.018 722.091h51.996c18.25 0 33.018 25.236 33.018 56.388s-14.791 56.366-33.041 56.366h-51.974c-18.25 0-33.018-25.236-33.018-56.388s14.768-56.366 33.018-56.366zM345.247 722.091h613.786c23.324 0 42.212 25.236 42.212 56.366s-18.887 56.388-42.212 56.388h-613.786c-23.324 0-42.212-25.236-42.212-56.388s18.864-56.366 42.212-56.366zM32.222 386.833h54.818c17.112 0 35.567 28.604 35.567 56.161 0 27.534-18.455 55.683-35.567 55.683h-54.818c-17.112 0-30.97-28.149-30.97-55.683 0-27.557 13.858-56.161 30.97-56.161zM959.033 498.699h-613.786c-23.324 0-42.212-28.149-42.212-55.683 0-27.557 18.887-56.161 42.212-56.161h613.786c23.324 0 42.212 28.604 42.212 56.161 0 27.511-18.887 55.683-42.212 55.683zM88.087 198.69h-52.816c-16.566 0-29.969-29.423-29.969-56.912 0-27.511 13.403-57.867 29.969-57.867h52.793c16.566 0 34.566 30.356 34.566 57.867 0 27.489-18 56.912-34.543 56.912zM959.033 198.69h-613.786c-23.324 0-42.212-29.423-42.212-56.912 0-27.511 18.887-56.525 42.212-56.525h613.786c23.324 0 42.212 29.013 42.212 56.525 0 27.489-18.887 56.912-42.212 56.912z" />
<glyph unicode="&#xe902;" glyph-name="扫一扫" d="M83.872 465.839h856.256v-35.678h-856.256v35.678zM940.128 555.032v267.533c0 29.582-23.795 53.563-53.563 53.563h-249.694v-71.355h205.232c14.88 0 26.669-11.94 26.669-26.669v-223.072h71.355zM940.128 340.968v-267.533c0-29.768-23.981-53.563-53.563-53.563h-249.694v71.354h205.232c14.729 0 26.669 11.79 26.669 26.669v223.073h71.355zM83.872 555.032v267.533c0 29.768 23.981 53.563 53.563 53.563h249.695v-71.355h-205.234c-14.729 0-26.669-11.79-26.669-26.669v-223.072h-71.354zM83.872 340.968v-267.533c0-29.582 23.795-53.563 53.563-53.563h249.695v71.354h-205.234c-14.88 0-26.669 11.94-26.669 26.669v223.073h-71.354z" />
<glyph unicode="&#xe903;" glyph-name="首页-首页" d="M949.082 440.657l-440.378 411.753-440.378-410.543c-8.615-8.032-9.096-21.539-1.044-30.145 8.043-8.6 21.566-9.086 30.175-1.036l411.215 383.338 411.233-384.505c4.126-3.855 9.363-5.76 14.59-5.76 5.691 0 11.384 2.26 15.584 6.758 8.059 8.6 7.615 22.095-0.998 30.14v0zM814.7 432.199c-11.787 0-21.349-9.556-21.349-21.328v-327.037h-170.798v227.503h-227.728v-227.503h-170.792v327.037c0 11.772-9.552 21.328-21.348 21.328-11.803 0-21.353-9.556-21.353-21.328v-369.692h256.195v227.502h142.33v-227.502h256.189v369.692c0.001 11.772-9.563 21.328-21.345 21.328v0zM665.255 737.905h128.095v-113.749c0-11.79 9.563-21.333 21.349-21.333 11.783 0 21.346 9.543 21.346 21.333v156.404h-170.791c-11.79 0-21.353-9.538-21.353-21.328-0.001-11.786 9.563-21.328 21.353-21.328v0z" />
<glyph unicode="&#xe904;" glyph-name="搜索" d="M958.948 115.851l-203.571 208.377c-1.994 2.047-4.539 2.932-6.753 4.647 42.663 60.092 67.949 133.349 67.949 212.693 0 203.341-164.892 368.283-368.298 368.283-203.403 0-368.298-164.942-368.298-368.283 0-203.397 164.895-368.282 368.298-368.282 84.109 0 161.353 28.439 223.326 75.911 1.106-1.325 1.547-2.932 2.711-4.148l203.569-208.431c11.066-11.344 25.788-17.042 40.506-17.042 14.275 0 28.608 5.366 39.617 16.157 22.359 21.8 22.8 57.708 0.944 80.118zM136.641 541.568c0 171.801 139.829 311.623 311.636 311.623 171.865 0 311.636-139.824 311.636-311.623 0-171.859-139.771-311.624-311.636-311.624-171.807 0-311.636 139.765-311.636 311.624z" />
<glyph unicode="&#xe905;" glyph-name="我的" d="M248.848 471.566c-2.442 0-4.368-0.358-5.882-0.962 2.053 0.623 4.246 0.962 6.503 0.962h-0.622zM923.781 202.651c0.068 1.249 0.228 2.474 0.492 3.655-0.289-0.541-0.442-1.698-0.492-3.655v0zM968.808 699.434c0.012 0.048 0.012 0.11 0.012 0.159v0.587c-0.001-0.254-0.001-0.507-0.012-0.745v0zM923.756 699.508c0-0.050 0-0.1 0.013-0.155-0.013 0.272-0.013 0.549-0.013 0.826v-0.672zM950.928 23.83c-6.338 47.193-20.2 92.761-41.194 135.438-4.104 8.343-8.454 16.545-13.063 24.587-0.012 0.025-0.024 0.049-0.055 0.074-19.985 33.847-44.504 65.276-73.085 93.328l-0.012 0.012c-6.214 6.097-12.613 12.047-19.203 17.819-46.99 41.175-101.24 71.712-159.090 90.282 10.472 5.802 20.6 12.299 30.327 19.498 11.082 8.165 21.628 17.235 31.547 27.153 52.152 52.161 80.886 121.516 80.886 195.284s-28.734 143.122-80.886 195.28c-51.217 51.209-119.009 79.827-191.264 80.86-1.144 0.012-2.295 0.025-3.44 0.025-1.15 0-2.295-0.012-3.438-0.025-72.254-1.033-140.054-29.651-191.265-80.862-52.151-52.157-80.887-121.513-80.887-195.28s28.735-143.123 80.887-195.284c9.918-9.918 20.465-18.988 31.539-27.153 9.728-7.199 19.862-13.696 30.334-19.498-57.85-18.57-112.1-49.107-159.091-90.282-6.588-5.772-12.995-11.722-19.202-17.819-28.604-28.076-53.155-59.53-73.153-93.414-4.607-8.042-8.958-16.244-13.067-24.587-20.995-42.677-34.851-88.245-41.194-135.438-2.024-15.118 8.582-29.018 23.695-31.048 1.242-0.166 2.491-0.252 3.717-0.252 1.12 0 2.215 0.061 3.31 0.203 10.928 2.381 19.751 11.29 21.461 22.993 12.73 87.353 54.361 166.732 114.205 227.178 71.024 71.761 167.685 116.862 272.15 117.041h0.591c104.237-0.357 200.678-45.415 271.559-117.041 59.838-60.447 101.475-139.826 114.205-227.178 1.711-11.678 10.497-20.575 21.394-22.981 0.024 0 0.037-0.012 0.061-0.012 1.096-0.142 2.198-0.203 3.317-0.203 1.224 0 2.467 0.086 3.716 0.252 15.111 2.032 25.718 15.931 23.688 31.050v0zM511.806 406.363c-0.56 0-1.114 0-1.667 0.012-103.075 0.757-194.974 72.37-220.090 168.432-0.278 1.046-0.553 2.104-0.806 3.162-3.933 15.881-6.025 32.382-6.025 49.334s2.092 33.642 6.025 49.8c0.253 1.084 0.528 2.153 0.806 3.226 25.253 98.466 118.008 176.729 221.757 176.729h1.181c103.745 0 196.506-78.264 221.758-176.729 0.278-1.072 0.553-2.141 0.806-3.226 3.931-16.158 6.023-32.849 6.023-49.8 0-16.953-2.092-33.453-6.023-49.334-0.253-1.058-0.529-2.117-0.806-3.162-25.117-96.061-117.017-167.675-220.097-168.432-0.941-0.012-1.889-0.012-2.843-0.012v0z" />
<glyph unicode="&#xe906;" glyph-name="下拉" d="M948.817 682.812c-14.653 14.466-38.226 14.391-52.731-0.227l-382.098-385.582-387.429 383.943c-14.654 14.505-38.226 14.398-52.772-0.221-14.512-14.661-14.397-38.266 0.222-52.777l411.781-408.037c0.638-0.63 1.457-0.781 2.089-1.377 0.154-0.147 0.188-0.335 0.336-0.485 7.273-7.197 16.788-10.817 26.258-10.817 9.583 0 19.207 3.693 26.479 11.040l408.054 411.765c14.546 14.659 14.432 38.264-0.188 52.775v0z" />
<glyph unicode="&#xe907;" glyph-name="消息" d="M277.264 17.341l2.033 211.667c-141.775 31.326-242.453 155.716-242.453 302.158v40.329c0 170.653 138.829 309.482 309.502 309.482h331.098c170.694 0 309.565-138.829 309.565-309.482v-40.329c0-170.673-138.87-309.523-309.565-309.523h-158.039l-242.142-204.302zM346.346 839.486c-147.791 0-268.011-120.22-268.011-267.991v-40.329c0-131.921 94.33-243.158 224.301-264.485l17.551-2.884 0.788-17.903-1.328-138.539 184.594 155.778h173.225c147.812 0 268.074 120.241 268.074 268.032v40.329c0 147.77-120.262 267.991-268.074 267.991h-331.119zM342.031 540.626c0 16.244 12.344 29.874 28.587 29.874 16.866 0 29.21-13.63 29.21-29.874 0-17.551-12.344-29.23-29.21-29.23-18.194 0.643-28.587 13.007-28.587 29.23zM370.619 490.65h-0.747c-28.608 1.017-48.586 21.575-48.586 49.976 0 27.923 22.135 50.619 49.333 50.619 28.027 0 49.955-22.239 49.955-50.619 0-28.484-21.472-49.976-49.955-49.976zM370.619 549.774c-4.917 0-7.842-4.647-7.842-9.128 0-5.767 2.303-8.194 8.194-8.485 7.261 0.145 8.111 4.896 8.111 8.485 0 4.523-2.904 9.128-8.464 9.128zM496.627 540.626c0 16.244 12.344 29.874 28.567 29.874 16.887 0 29.23-13.63 29.23-29.874 0-17.551-12.344-29.23-29.23-29.23-18.173 0.643-28.567 13.007-28.567 29.23zM525.193 490.65h-0.747c-28.587 1.017-48.565 21.575-48.565 49.976 0 27.923 22.115 50.619 49.312 50.619 28.027 0 49.976-22.239 49.976-50.619 0-28.484-21.492-49.976-49.976-49.976zM525.193 549.774c-4.896 0-7.821-4.647-7.821-9.128 0-5.767 2.303-8.174 8.174-8.485 7.282 0.145 8.132 4.896 8.132 8.485 0 4.523-2.925 9.128-8.485 9.128zM651.243 540.626c0 16.244 12.323 29.874 28.567 29.874 16.887 0 29.21-13.63 29.21-29.874 0-17.551-12.323-29.23-29.21-29.23-18.194 0.643-28.567 13.007-28.567 29.23zM679.81 490.65h-0.726c-28.608 1.017-48.586 21.575-48.586 49.976 0 27.923 22.115 50.619 49.312 50.619 28.027 0 49.955-22.239 49.955-50.619 0-28.484-21.472-49.976-49.955-49.976zM679.81 549.774c-4.896 0-7.821-4.647-7.821-9.128 0-5.767 2.303-8.194 8.194-8.485 7.261 0.145 8.111 4.896 8.111 8.485-0.021 4.523-2.946 9.128-8.485 9.128z" />
<glyph unicode="&#xe908;" glyph-name="优惠" d="M725.333 746.667c-46.933 0-85.333-38.4-85.333-85.333s38.4-85.333 85.333-85.333 85.333 38.4 85.333 85.333c0 46.933-38.4 85.333-85.333 85.333zM725.333 618.667c-23.467 0-42.667 19.2-42.667 42.667s19.2 42.667 42.667 42.667 42.667-19.2 42.667-42.667c0-23.467-19.2-42.667-42.667-42.667zM810.667 832h-241.067c-23.467 0-44.8-8.533-59.733-25.6l-405.333-405.333c-34.133-34.133-34.133-87.467 0-121.6l241.067-241.067c17.067-17.067 38.4-23.467 59.733-23.467s42.667 8.533 59.733 25.6l405.333 405.333c14.933 17.067 25.6 38.4 25.6 59.733v241.067c0 46.933-38.4 85.333-85.333 85.333zM853.333 505.6c0-10.667-4.267-21.333-12.8-29.867l-405.333-405.333c-8.533-8.533-19.2-12.8-29.867-12.8s-21.333 4.267-29.867 12.8l-243.2 241.067c-6.4 8.533-10.667 19.2-10.667 29.867s4.267 21.333 12.8 29.867l405.333 405.333c6.4 8.533 19.2 12.8 29.867 12.8h241.067c23.467 0 42.667-19.2 42.667-42.667v-241.067z" />
<glyph unicode="&#xe909;" glyph-name="向左" d="M796.477 9.102c16.76-16.704 16.76-43.832 0-60.538-16.676-16.752-43.81-16.752-60.491 0l-509.449 466.799c-8.901 8.951-12.715 20.789-12.134 32.452-0.58 11.67 3.233 23.532 12.134 32.459l509.45 466.799c16.681 16.752 43.815 16.752 60.491 0 16.76-16.721 16.76-43.832 0-60.538l-478.66-438.719 478.659-438.714z" />
<glyph unicode="&#xe90a;" glyph-name="收藏" horiz-adv-x="1025" d="M511.798 701.165c-132.552 313.296-509.314 240.204-511.79-123.404-1.386-199.693 179.4-274.356 299.767-354.187 116.711-77.422 199.789-183.34 212.799-228.429 11.143 44.18 103.665 153.091 211.709 230.591 118.138 84.752 301.141 154.494 299.774 354.187-2.498 364.505-385.813 422.039-512.258 121.241z" />
<glyph unicode="&#xe90b;" glyph-name="五角星" d="M1020.86 573.92c-8.37 27.96-32.753 49.182-72.471 63.075-0.524 0.191-1.039 0.35-1.568 0.493l-215.665 58.521c-46.763 71.317-93.589 142.611-140.404 213.92-0.195 0.279-0.621 0.93-0.815 1.209-22.529 31.505-50.605 48.863-79.033 48.863-20.55 0-50.679-8.861-77.812-51.439l-120.113-195.108c-53.789-16.3-107.569-32.673-161.388-49.039l-78.65-23.924c-36.632-11.9-59.775-31.155-68.787-57.242-9.454-27.406-2.81-59.364 20.341-97.704 0.561-0.939 1.173-1.829 1.839-2.672 47.055-59.538 94.088-119.141 141.144-178.814-2.414-85.98-4.865-172.056-7.361-258.125-3.587-41.21 2.376-70.251 18.204-88.779 11.993-14.043 28.672-21.156 49.574-21.156 16.014 0 35.010 4.181 60.641 13.504l207.675 84.526c78.359-29.227 156.806-58.371 236.204-87.826 15.499-4.991 29.847-7.518 42.663-7.518 29.22 0 78.83 13.441 82.792 103.489 0.036 0.923 0.036 1.837-0.023 2.76-4.343 76.738-8.736 153.308-13.124 229.919l-0.060 1.009 152.96 205.686c23.598 33.954 31.418 65.049 23.238 92.373v0zM959.155 512.807l-158.205-212.711c-3.699-4.975-5.546-11.215-5.179-17.55l0.612-10.832c4.364-76.126 8.735-152.22 13.054-228.472-2.674-53.061-23.263-53.061-34.368-53.061-8.055 0-17.688 1.78-27.664 4.967-81.236 30.17-162.427 60.326-243.55 90.599-5.417 2.005-11.298 1.917-16.657-0.246l-215.117-87.585c-19.34-7.019-33.799-10.427-44.186-10.427-10.074 0-12.741 3.132-13.751 4.3-2.788 3.266-8.936 14.688-5.752 50.088 0.044 0.549 0.082 1.105 0.096 1.661 2.595 89.638 5.15 179.259 7.66 268.777 0.172 6.311-1.839 12.471-5.657 17.311-48.685 61.777-97.369 123.455-146.061 185.083-13.392 22.54-18.526 40.081-14.818 50.788 4.356 12.638 22.776 20.974 37.050 25.608l78.246 23.795c56.712 17.253 113.354 34.486 170.020 51.662 5.597 1.693 10.432 5.484 13.607 10.658l124.839 202.784c8.28 12.996 21.522 28.502 37.528 28.502 12.943 0 27.33-10.151 40.153-28.081 48.535-73.908 97.070-147.801 145.539-221.726 3.318-5.063 8.235-8.694 13.862-10.22l223.561-60.668c23.002-8.162 37.446-18.63 40.711-29.511 3.108-10.404-2.593-26.784-15.573-45.494v0z" />
<glyph unicode="&#xe90c;" glyph-name="分享" d="M117.883-58.88c-61.486 0-111.508 50.166-111.508 111.816v731.474c0 61.64 50.022 111.785 111.508 111.785h309.243c18.432 0 33.423-15.063 33.423-33.582 0-18.478-15.002-33.546-33.439-33.582h-303.662c-27.607 0-50.068-22.538-50.068-50.248v-720.282c0-27.689 22.461-50.217 50.068-50.217h748.283c27.617 0 50.084 22.523 50.084 50.217v289.382c0.118 18.371 15.135 33.352 33.495 33.352 18.386 0 33.413-15.002 33.48-33.434v-294.861c0-61.65-50.017-111.816-111.508-111.816h-759.398zM314.056 123.228c-9.247 0-17.93 3.599-24.458 10.138-6.723 6.728-10.445 15.841-10.496 25.677 6.861 90.885 18.724 165.32 36.26 227.594 18.253 64.829 42.726 116.864 74.808 159.094 63.642 83.753 160.348 131.139 304.364 149.115h208.952l-197.765 199.675c-3.215 6.497-5.786 14.986-5.786 19.185 0 19.348 15.703 35.092 35 35.092 4.393 0 10.685-0.543 15.969-3.082l9.503-7.828 269.916-270.74 6.912-7.895-6.738-6.764-277.1-276.311c-5.335-2.186-13.527-4.5-17.449-4.5-19.277 0-34.959 15.739-34.959 35.092 0 6.088 1.039 11.679 2.954 15.785l6.938 8.806 192.701 193.26-208.916 0.031c-123.776-13.773-202.322-53.14-254.669-127.631-50.033-71.204-77.558-174.817-92.027-346.404-4.946-13.548-18.852-27.387-33.915-27.387z" />
<glyph unicode="&#xe90d;" glyph-name="向右" horiz-adv-x="1025" d="M250.773 913.089c15.631 15.604 40.94 15.604 56.566 0l476.168-434.918c8.359-8.332 11.882-19.356 11.338-30.226 0.545-10.869-2.978-21.92-11.338-30.226l-476.168-434.918c-15.627-15.577-40.935-15.577-56.566 0-15.627 15.578-15.627 40.862 0 56.439l447.472 408.705-447.472 408.731c-15.63 15.577-15.63 40.834 0 56.41z" />
<glyph unicode="&#xe90e;" glyph-name="待支付" d="M511.675 895.979c-247.254 0-447.694-200.44-447.694-447.696s200.44-447.696 447.694-447.696c247.256 0 447.696 200.44 447.696 447.696s-200.44 447.696-447.696 447.696zM754.655 333.188c0-42.375-34.352-76.73-76.727-76.73h-332.499c-42.375 0-76.727 34.354-76.727 76.73v145.786h485.955v-145.786zM754.655 530.127h-485.955v33.251c0 42.375 34.352 76.729 76.727 76.729h332.499c42.375 0 76.727-34.353 76.727-76.729v-33.251zM337.757 407.361h184.151c5.65 0 10.231 4.58 10.231 10.23s-4.581 10.23-10.231 10.23h-184.151c-5.65 0-10.233-4.582-10.233-10.23 0-5.65 4.583-10.23 10.233-10.23zM337.757 335.745h133c5.65 0 10.229 4.58 10.229 10.231s-4.579 10.23-10.229 10.23h-133c-5.65 0-10.233-4.58-10.233-10.23 0-5.652 4.583-10.231 10.233-10.231z" />
<glyph unicode="&#xe90f;" glyph-name="关于我们" d="M515.891 949.663c-280.622 0-508.119-227.482-508.119-508.109 0-280.607 227.497-508.114 508.119-508.114s508.109 227.512 508.109 508.114c0 280.627-227.492 508.109-508.109 508.109zM572.349 74.578h-141.153v395.203h141.153v-395.203zM501.765 554.465c-54.569 0-98.796 44.247-98.796 98.801s44.232 98.796 98.796 98.796c54.579 0 98.806-44.247 98.806-98.796 0.005-54.554-44.227-98.801-98.806-98.801z" />
<glyph unicode="&#xe910;" glyph-name="密码" d="M643.082 554.921c0 67.42-72.586 114.406-137.723 114.406-69.658 0-124.227-50.253-124.227-114.406v-49.925h261.949v49.925zM313.585 469.801h397.015v-248.448h-397.015v248.448zM517.652 953.866c-282.486 0-511.483-229.002-511.483-511.488 0-282.496 229.002-511.493 511.483-511.493 282.465-0.005 511.468 228.997 511.468 511.488s-229.002 511.493-511.468 511.493zM794.296 133.755h-553.298v377.416h79.954v59.121c0 99.645 81.065 180.705 180.7 180.705h31.985c99.64 0 180.705-81.065 180.705-180.705v-59.121h79.954v-377.416z" />
<glyph unicode="&#xe911;" glyph-name="评价" d="M513.070 960c283.361 0 513.070-229.704 513.070-513.070 0-283.361-229.709-513.070-513.070-513.070-283.366 0-513.070 229.709-513.070 513.070 0 283.366 229.704 513.070 513.070 513.070zM767.749 428.887c11.648 33.864 9.81 70.953 10.455 106.25 0.727 41.242 1.638 82.478 1.746 123.715 0.026 12.012-10.388 22.917-22.81 22.554-44.293-1.285-80.353-16.246-118.323-33.070-5.811 26.317-17.249 50.365-34.739 72.745-17.935 22.984-55.112 57.999-87.071 57.999-30.638 0-64.22-33.521-82.627-54.108-19.43-21.719-32.471-47.181-39.849-74.501-34.309 17.060-65.884 29.844-108.769 30.935-12.442 0.323-22.81-10.496-22.81-22.554 0-76.042-12.467-164.823 12.846-238.044 31.892-92.308 122.732-148.040 217.139-158.561v-132.26c0-30.295 44.769-30.295 44.769 0v130.703c103.204 4.572 196.695 71.311 230.042 168.197v0zM311.757 460.375c-6.502 27.448-3.205 59.131-3.205 87.071v86.733c33.603-5.453 58.875-20.526 91.069-37.007 16.353-8.376 32.558 2.289 34.309 19.476 4.9 47.949 35.359 89.508 77.112 113.132 18.596 10.522 51.692-28.989 60.457-40.212 15.498-19.84 23.455-43.418 25.61-68.004-0.548-3.185-0.195-6.518 0.881-9.748 3.374-16.717 22.897-21.786 35.139-15.114 34.406 14.838 65.009 31.345 101.038 37.304-0.389-47.288-1.5-94.597-2.401-141.885-2.028-107.684-97.116-180.193-200.223-186.609-99.948-6.154-196.721 57.364-219.786 154.865v0zM349.957 278.774c-44.529 17.050-118.538 6.84-139.279-41.969-11.372-26.803 32.773-38.395 43.996-11.991-2.396-5.627 14.623 9.078 23.578 12.037 32 10.501 59.581 1.859 84.506-18.412 26.23-21.309 47.78-50.222 64.558-79.268 14.582-25.247 54.001-2.514 39.378 22.769-26.245 45.496-65.925 97.357-116.736 116.833v0zM824.888 230.651c-20.716 48.804-94.746 59.023-139.274 41.964-50.821-19.476-90.496-71.342-116.777-116.828-14.612-25.288 24.806-48.015 39.383-22.769 17.101 29.588 38.907 56.545 64.558 79.268 22.528 19.948 46.3 25.395 75.848 20.5 9.344-1.562 19.666-4.849 27.274-10.691 3.297-2.54 8.402-11.52 4.966-3.441 11.228-26.404 55.393-14.833 44.022 11.996v0z" />
<glyph unicode="&#xe912;" glyph-name="退出" d="M517.12 954.88c-282.762 0-512-229.238-512-512 0-282.767 229.238-512 512-512 282.767 0 512 229.233 512 512 0 282.762-229.233 512-512 512zM482.985 715.945c0 18.847 15.293 34.135 34.135 34.135 18.847 0 34.135-15.288 34.135-34.135v-204.8c0-18.842-15.288-34.135-34.135-34.135-18.842 0-34.135 15.288-34.135 34.135v204.8zM517.12 135.68c-150.799 0-273.065 122.266-273.065 273.065 0 114.555 70.656 212.244 170.665 252.795v-76.457c-60.964-35.569-102.4-100.9-102.4-176.333 0-112.911 91.889-204.8 204.8-204.8s204.8 91.889 204.8 204.8c0 75.433-41.441 140.836-102.4 176.333v76.457c100.009-40.55 170.665-138.24 170.665-252.795 0-150.799-122.266-273.065-273.065-273.065z" />
<glyph unicode="&#xe913;" glyph-name="我的订单" d="M639.923 730.854h-51.174v51.174h-153.523v-51.174h-51.174v-51.149h255.872v51.149zM691.098 628.506h-358.195v51.2h-51.2v-500.045h460.544v500.045h-51.149v-51.2zM665.498 256.41h-307.021v51.174h307.021v-51.174zM665.498 385.741h-307.021v51.174h307.021v-51.174zM665.498 492.16h-307.021v51.2h307.021v-51.2zM512 960c-282.803 0-512-229.197-512-512 0-282.752 229.197-512 512-512 282.752 0 512 229.248 512 512 0 282.803-229.248 512-512 512v0zM125.594 448.051l0.64 1.357c0.051-1.024 0.102-2.074 0.179-3.123l-0.819 1.766zM793.421 154.061c0-14.131-11.443-25.574-25.574-25.574h-511.718c-14.131 0-25.574 11.443-25.574 25.574v551.219c0 14.131 11.443 25.574 25.574 25.574h76.774v51.174h51.149v51.174h255.872v-51.174h51.174v-51.174h76.749c14.131 0 25.574-11.443 25.574-25.574v-551.219z" />
<glyph unicode="&#xe914;" glyph-name="我的收藏" d="M514.412 955.192c-281.441 0-509.599-228.152-509.599-509.599 0-281.436 228.157-509.594 509.599-509.594s509.588 228.157 509.588 509.594c0 281.446-228.152 509.599-509.588 509.599zM732.252 133.535l-217.841 114.529-217.841-114.529 41.6 242.575-176.241 171.786 243.553 35.395 108.923 220.692 108.923-220.692 243.543-35.395-176.23-171.786 41.61-242.575z" />
<glyph unicode="&#xe915;" glyph-name="qq" d="M512 960c-282.767 0-511.979-229.221-511.979-512s229.211-512 511.979-512 511.979 229.221 511.979 512-229.211 512-511.979 512zM793.886 288.427c-13.223-12.342-35.924 1.102-57.744 31.297-9.477-25.566-21.819-49.149-36.144-70.309 30.855-11.020 50.692-28.212 50.692-47.608 0-33.501-59.287-60.611-132.458-60.611-43.418 0-81.767 9.477-106.010 24.244-24.023-14.767-62.593-24.244-106.010-24.244-73.172 0-132.458 27.109-132.458 60.611 0 19.175 19.836 36.586 50.692 47.608-14.546 21.159-26.667 44.742-36.144 70.309-21.819-29.975-44.519-43.64-57.744-31.297-18.073 16.971-11.24 76.922 15.647 133.785 6.171 13.004 12.783 24.685 19.615 34.823 3.746 165.304 112.622 297.987 246.181 297.987h0.441c133.559 0 242.435-132.463 246.181-297.987 6.833-10.139 13.444-21.82 19.615-34.823 26.67-56.864 33.723-116.814 15.65-133.785z" />
<glyph unicode="&#xe916;" glyph-name="短信验证码" d="M512.054 397.876l-418.786 346.005c2.313 0.472 4.357 1.366 6.669 1.366h824.235c2.313 0 4.355-0.894 6.615-1.366l-418.733-346.005zM959.776 178.848l-297.276 294.907 296.853 245.392c1.156-3.576 2.256-7.195 2.256-11.082v-520.184c0-3.151-1.046-6.039-1.834-9.032v0zM64.279 178.848c-0.732 2.937-1.889 5.826-1.889 9.032v520.184c0 3.989 1.209 7.506 2.313 11.132l297.010-245.441-297.433-294.907zM924.172 150.752h-824.234c-3.205 0-6.145 1.048-9.086 1.837l299.742 297.219 109.433-90.42c3.47-2.892 7.773-4.31 12.027-4.31 4.252 0 8.507 1.418 11.975 4.31l109.539 90.474 299.797-297.271c-3.049-0.79-5.937-1.838-9.192-1.838v0z" />
<glyph unicode="&#xe917;" glyph-name="手机" d="M759.168-64h-494.336c-29.248 0-52.992 23.68-52.992 52.992v918.016c0 29.248 23.744 52.992 52.992 52.992h494.336c29.248 0 52.992-23.68 52.992-52.992v-918.080c0-29.248-23.744-52.928-52.992-52.928zM512-11.072c19.52 0 35.328 15.808 35.328 35.328s-15.808 35.328-35.328 35.328c-19.52 0-35.328-15.808-35.328-35.328s15.808-35.328 35.328-35.328zM759.168 854.080h-494.336v-741.504h494.336v741.504z" />
<glyph unicode="&#xe918;" glyph-name="微信" d="M579.866 448.068c-11.67 0-23.344-10.837-23.344-24.178 0-10.839 11.668-21.678 23.344-21.678 17.514 0 30.020 10.839 30.020 21.678 0 13.34-12.505 24.178-30.020 24.178v0zM503.154 560.64c18.344 0 30.020 11.67 30.020 29.185 0 18.345-11.675 29.183-30.020 29.183-17.51 0-34.188-10.839-34.188-29.183-0.001-17.517 16.678-29.185 34.188-29.185v0zM512.326 959.44c-282.655 0-511.788-229.133-511.788-511.788 0-282.653 229.133-511.786 511.788-511.786 282.653 0 511.786 229.133 511.786 511.786 0.001 282.655-229.132 511.788-511.786 511.788v0zM415.602 317.992c-30.855 0-53.369 4.999-82.553 13.341l-84.218-42.53 24.186 71.715c-59.204 41.688-94.228 94.221-94.228 158.428 0 113.403 106.733 200.123 236.814 200.123 115.069 0 217.633-68.377 237.644-165.106-8.337 1.672-15.844 2.502-22.514 2.502-113.403 0-200.954-85.049-200.954-187.613 0-17.508 2.502-33.351 6.671-50.031-6.671-0.829-14.178-0.829-20.849-0.829v0zM763.315 236.276l16.674-60.040-63.371 35.854c-24.18-4.999-47.529-12.505-71.709-12.505-111.737 0-200.123 76.712-200.123 171.769s88.388 171.771 200.123 171.771c105.896 0 200.954-76.713 200.954-171.771 0-53.362-35.854-100.891-82.548-135.078v0zM338.053 619.008c-17.51 0-35.854-10.839-35.854-29.183 0-17.516 18.344-29.19 35.854-29.19 16.679 0 30.020 11.675 30.020 29.19 0 18.344-13.341 29.183-30.020 29.183v0zM710.783 448.068c-12.51 0-23.349-10.837-23.349-24.178 0-10.839 10.839-21.678 23.349-21.678 16.674 0 29.183 10.839 29.183 21.678 0 13.34-12.509 24.178-29.183 24.178v0z" />
<glyph unicode="&#xe919;" glyph-name="新浪微博" d="M445.706 303.334c8.207 6.359 11.372 17.567 6.922 24.945-4.439 7.301-14.612 9.421-24.438 2.125-8.463-6.113-10.173-17.731-5.56-25.027 4.439-7.383 14.7-8.238 23.076-2.043zM367.662 237.501c24.622 2.719 44.708 21.637 44.708 41.994 0 20.541-18.555 36.731-46.925 34.022-24.709-2.534-42.414-23.931-42.414-44.273 0.005-20.536 19.917-34.632 44.631-31.744zM401.091 409.892c132.572 15.268 156.165-110.188 115.83-161.782-40.259-51.497-120.018-76.692-197.386-35.128-36.838 19.86-35.558 58.716-35.558 58.716s-15.217 122.844 117.115 138.194zM427.325 157.926c131.645 6.021 238.239 87.644 238.239 174.689 0 86.948-106.588 140.733-238.239 134.707-131.635-6.016-237.972-75.919-237.972-162.949 0-87.137 106.337-152.458 237.972-146.447zM1.285 445.020c0-281.144 229.606-509.020 512.896-509.020 283.279 0 512.886 227.876 512.886 509.020s-229.606 509.010-512.886 509.010c-283.29-0.005-512.896-227.871-512.896-509.010zM707.456 440.694c31.375-6.2 130.017-51.507 75.725-165.868-54.277-114.176-233.19-169.743-365.686-159.468-125.993 9.841-287.985 51.308-304.655 202.404 0 0-8.893 68.475 58.045 156.948 0 0 96.256 133.274 208.481 171.361 112.164 37.755 125.24-26.22 125.24-64.133-5.893-32.072-17.101-50.985 25.037-38.006 0 0 110.356 50.729 155.756 5.683 36.577-36.311 6.067-86.195 6.067-86.195s-15.212-16.712 15.99-22.728zM771.896 493.885c-12.042 0-21.775 9.585-21.775 21.453 0 0 21.443 96.297-75.75 74.993-11.965 0-21.627 9.677-21.627 21.463 0 12.052 9.661 21.637 21.627 21.637 0 0 135.235 24.776 119.076-119.199 0-0.927-0.082-1.608-0.261-2.284-1.546-10.266-10.588-18.063-21.289-18.063zM756.163 745.252c83.702-19.261 198.502-99.517 146.872-270.121h-0.169c-3.589-24.346-15.729-26.301-30.351-26.301-17.357 0-31.375 10.86-31.375 28.083 0 15.007 6.241 30.198 6.241 30.198 1.812 6.19 16.507 45.297-9.738 103.752-48.123 80.087-144.973 81.275-156.431 76.692-11.54-4.495-28.544-6.784-28.544-6.784-17.536 0-31.555 14.167-31.555 31.304 0 14.428 9.667 26.639 22.999 30.285 0 0 0.333 0.512 0.763 0.599 1.029 0.174 1.981 1.193 3 1.27 13.409 2.545 61.548 11.96 108.288 1.024z" />
<glyph unicode="&#xe91a;" glyph-name="验证" d="M346.154 503.16c-11.91 11.71-31.14 11.71-43.018 0l-14.336-14.133c-11.842-11.71-11.842-30.742 0-42.454l156.756-154.691c0.276-0.302 0.569-0.61 0.866-0.902l14.374-14.142c11.841-11.707 31.105-11.707 42.986 0l272.258 268.739c11.914 11.745 11.914 30.74 0 42.45l-14.302 14.141c-11.876 11.71-31.139 11.71-42.979 0l-236.493-233.376-136.112 134.368zM971.793 715.677c-40.985 2.992-82.176 11.115-117.5 23.056-11.442 3.629-22.893 7.655-34.406 12.008-24.28 7.552-57.319 22.525-94.809 43.853-0.396 0.196-0.803 0.434-1.194 0.667-8.818 5.019-17.834 10.376-27.018 16.068-12.369 7.482-24.62 15.463-36.854 23.784-0.471 0.333-0.938 0.637-1.404 0.963-8.783 5.989-17.53 12.174-26.214 18.597-5.649 4.093-11.312 8.451-16.967 12.775-4.259 3.294-8.517 6.393-12.774 9.784-31.133 24.547-61.873 52.093-90.652 81.768-28.778-29.675-59.519-57.222-90.657-81.771-4.253-3.391-8.515-6.489-12.774-9.784-5.662-4.325-11.313-8.682-16.967-12.775-8.684-6.423-17.432-12.607-26.217-18.597-0.462-0.332-0.933-0.63-1.396-0.963-12.242-8.319-24.485-16.301-36.861-23.784-9.18-5.69-18.197-11.049-27.011-16.068-0.397-0.233-0.803-0.471-1.195-0.667-37.496-21.328-70.533-36.301-94.814-43.853-11.513-4.354-22.954-8.379-34.405-12.008-35.326-11.941-76.51-20.065-117.498-23.056h-0.102c1.196-19.393 2.428-45.11 3.859-72.962 0.231 0 0.499 0 0.769 0.043 6.916-103.937 26.642-200.671 56.414-287.54 1.331-3.793 2.468-7.756 3.799-11.512 0.625-1.768 1.362-3.396 1.992-5.157 71.257-194.181 195.018-335.48 343.755-387.267v-0.536c19.661-6.85 36.227-11.084 49.3-13.745 13.078 2.665 29.648 6.893 49.308 13.745v0.536c148.742 51.788 272.502 193.086 343.762 387.267 0.631 1.769 1.363 3.39 1.998 5.157 1.328 3.758 2.462 7.719 3.79 11.512 29.774 86.866 49.509 183.603 56.426 287.54 0.268-0.036 0.535-0.036 0.762-0.036 1.434 27.844 2.662 53.561 3.859 72.955h-0.104v0.003zM513.958 9.265c-0.658 0.196-1.296 0.502-1.965 0.696-0.665-0.194-1.293-0.5-1.962-0.696-205.127 63.937-359.426 318.574-373.401 646.13 123.223 28.31 252.306 97.285 371.542 201.042 1.265-1.137 2.558-2.094 3.821-3.187 1.267 1.092 2.563 2.050 3.83 3.187 119.233-103.764 248.31-172.732 371.532-201.042-13.967-327.556-168.264-582.192-373.397-646.13z" />
<glyph unicode="&#xe91b;" glyph-name="密码-注册时" d="M821.272 514.17h-84.699v154.646c0 125.374-91.903 227.066-205.341 227.066h-38.489c-113.42 0-205.322-101.691-205.322-227.066v-154.647h-84.699c-22.695 0-41.074-20.301-41.074-45.429v-422.807c0-25.053 18.38-45.391 41.074-45.391h618.549c22.696 0 41.077 20.338 41.077 45.391v422.808c0.001 25.127-18.38 45.429-41.076 45.429zM511.998 79.997c-42.863 0-77.647 38.394-77.647 85.838 0 30.146 14.066 56.566 35.298 71.888v148.336c0 23.757 18.361 42.957 41.077 42.957 22.695 0 41.038-19.2 41.038-42.957v-146.59c22.658-14.976 37.884-42.349 37.884-73.635-0.001-47.445-34.785-85.838-77.648-85.838zM670.674 514.17h-310.129v137.693c0 84.278 63.504 152.63 141.797 152.63h26.572c78.293 0 141.76-68.352 141.76-152.63v-137.693z" />
<glyph unicode="&#xe91c;" glyph-name="向上" d="M74.004 218.020c14.659-14.464 38.231-14.392 52.736 0.23l382.095 385.587 387.43-383.949c14.653-14.505 38.226-14.397 52.772 0.225 14.515 14.659 14.403 38.267-0.22 52.782l-411.781 408.028c-0.64 0.63-1.459 0.778-2.089 1.377-0.154 0.143-0.189 0.333-0.333 0.486-7.276 7.199-16.788 10.819-26.26 10.819-9.585 0-19.205-3.697-26.476-11.039l-408.064-411.771c-14.541-14.659-14.433-38.267 0.189-52.777v0z" />
<glyph unicode="&#xe91d;" glyph-name="商家" horiz-adv-x="1050" d="M839.733 502.536c19.857-19.25 44.444-32.546 71.332-37.661v-488.986c0-22.085-15.909-39.894-35.618-39.894h-712.957c-19.725 0-35.745 17.809-35.745 39.894v488.802c27.004 4.698 51.511 17.387 71.448 36.078v-260.233h641.541v262.001zM896.443 878.402c5.125 0 9.992-1.209 14.621-3.12v44.871c0 22.037-15.909 39.846-35.618 39.846h-712.957c-19.725 0-35.745-17.809-35.745-39.846v-45.378c5.12 2.185 10.694 3.626 16.352 3.626h753.347zM896.443 830.512h-753.347l-143.096-171.705c0-64.116 46.56-116.145 103.904-116.145 11.94 0 23.304 2.328 34.040 6.418 0.333 0.227 0.829 0.422 1.167 0.602 3.368 1.304 6.572 2.75 9.612 4.413 0.375 0.185 0.876 0.464 1.288 0.75 3.246 1.81 6.45 3.716 9.49 5.854 0.121 0.1 0.333 0.232 0.417 0.327 13.228 9.49 24.381 22.227 32.705 37.107 0 0.095 0.084 0.227 0.084 0.369 1.995 3.632 3.832 7.532 5.495 11.486v0.048c6.244 14.79 9.733 31.338 9.733 48.777 0-64.116 46.603-116.145 103.941-116.145 57.381 0 103.947 52.029 103.947 116.145 0-64.116 46.56-116.145 104.020-116.145 57.392 0 103.936 52.029 103.936 116.145 0-64.116 46.497-116.145 104.031-116.145 57.26 0 103.857 52.029 103.857 116.145 0-20.506 4.824-39.751 13.111-56.542 0.454-0.739 0.834-1.483 1.288-2.233 1.589-2.877 3.167-5.764 4.956-8.551 0.454-0.75 1.114-1.726 1.784-2.703 1.752-2.465 3.579-5.115 5.579-7.485 0.586-0.786 1.124-1.441 1.657-2.185 2.423-2.929 5.041-5.579 7.754-8.139 0.074-0.137 0.153-0.327 0.322-0.375 9.153-8.741 19.599-15.619 31.042-20.454 0.095 0 0.29-0.048 0.38-0.185 3.827-1.536 7.537-2.882 11.528-3.906v0c7.939-2.191 16.136-3.399 24.507-3.399 57.465 0 104.073 52.023 104.073 116.145l-143.207 171.71z" />
<glyph unicode="&#xe91e;" glyph-name="景点" d="M803 583.6c15.8-0.9 34.2-2.5 52.7-5.5 51.6-8.5 97.8-32.1 97.8-32.1s-50.1 109.3-177.3 49c-51.7 102.6-137.7 58-137.7 58s41.6-8.5 79-29.7c9.9-5.6 19.5-11.7 28-17.6-141.8 42.1-194.5-104-194.5-104s55.5 40.3 118.2 60.5c22.9 7.4 45.9 12.7 65.4 16.5-87.4-31.1-44.8-121.2-44.8-121.2s9.9 41.1 34 74c10.2 13.9 21.8 26.3 31.4 35.9-18.6-71.5-71.1-261.6-117-317.7-0.5-0.7-0.9-1.3-1.2-2-36.7 12.4-77 19.3-119.2 19.3-4.4 0-8.7-0.1-13.1-0.2-0.2 0.3-0.5 0.6-0.7 0.8-64.7 65.5-153.9 300-186 388.3 13.3-11 29.5-25.4 44-41.7 34.5-38.8 52-89.6 52-89.6s43.1 119.1-71.3 148.1c25.1-2.5 54.9-6.5 84.7-13.1 81.7-18 156.8-62.4 156.8-62.4s-84.2 178.6-258.7 108.2c10.2 8.5 21.5 17.4 33.4 25.7 44.9 31.3 96.5 47 96.5 47s-114.2 46.2-167.4-89.8c-168.3 61.2-218.7-83.2-218.7-83.2s55.6 35.5 120 52.4c22.9 6 46 10.2 65.9 13.3-206.4-78.5-145.2-255.7-145.2-255.7s29.9 81.1 84.3 150.5c25.5 32.5 53.8 62.2 75.6 84-96.7-126.1 12.8-222 12.8-222s-13.5 66.3-6 133.4c3.4 30.3 9.6 59.7 14.9 82.2 14.9-99.7 62-287.6 118.5-391.9-81.1-24.5-145.9-76-177.8-140.9 14 16.5 31.8 31.9 53.2 45.8 61.5 39.8 144 61.8 232.4 61.8 88.3 0 170.9-21.9 232.3-61.8 21.4-13.8 39.2-29.3 53.2-45.8-21.4 43.5-57.5 80.9-103.4 108.3 0.8 0.6 1.4 1.2 1.9 2 42.9 78.9 70.2 251.9 74.9 338.7 5.8-17.2 12.9-39.8 17.7-63.2 10.8-52 5.2-104.9 5.2-104.9s78.7 83.2-6.4 174.8c18.7-15.4 43.1-36.6 65.4-60.2 47.7-50.3 77.1-111.6 77.1-111.6s34.7 143.2-132.8 189.3z" />
<glyph unicode="&#xe91f;" glyph-name="拍照" d="M519.71 519.203c-82.737 0-150.046-67.308-150.046-150.046s67.309-150.046 150.046-150.046c82.738 0 150.046 67.308 150.046 150.046s-67.308 150.046-150.046 150.046zM212.676 624.523h66.982c13.863 0 25.118 11.243 25.118 25.118s-11.255 25.118-25.118 25.118h-66.982c-13.867 0-25.118-11.242-25.118-25.118s11.251-25.118 25.118-25.118zM821.757 599.405h-133.931v62.762c0 39.321-31.884 71.201-71.201 71.201h-209.251c-39.325 0-71.201-31.88-71.201-71.201v-62.762h-133.931c-39.325 0-71.201-31.88-71.201-71.201v-351.587c0-39.321 31.876-71.201 71.201-71.201h619.515c39.315 0 71.2 31.88 71.2 71.201v351.587c0 39.321-31.884 71.201-71.2 71.201zM519.71 185.62c-101.2 0-183.536 82.329-183.536 183.536 0 101.2 82.336 183.536 183.536 183.536s183.536-82.336 183.536-183.536c0-101.207-82.335-183.536-183.536-183.536zM749.959 457.070c-18.494 0-33.492 14.996-33.492 33.491s14.997 33.491 33.492 33.491c18.495 0 33.492-14.996 33.492-33.491s-14.997-33.491-33.492-33.491z" />
<glyph unicode="&#xe920;" glyph-name="商品" d="M956.119 504.561l-70.303-423.091h-737.393l-70.303 423.091c-40.499 6.958-71.501 43.945-71.501 88.909 0 49.905 38.088 90.348 85.084 90.348 46.991 0 85.084-40.443 85.084-90.348 0-22.17-7.828-42.225-20.311-57.943l159.109-99.031 139.843 297.027c-31.109 21.468-51.758 58.542-51.758 100.89 0 66.529 50.801 120.468 113.449 120.468s113.444-53.939 113.444-120.468c0-42.348-20.644-79.416-51.763-100.89l139.848-297.027 159.109 99.031c-12.483 15.718-20.311 35.773-20.311 57.943 0 49.905 38.088 90.348 85.084 90.348s85.079-40.443 85.079-90.348c0.005-44.964-30.991-81.951-71.491-88.909v0zM885.816-69.12h-737.393v90.353h737.388v-90.353z" />
<glyph unicode="&#xe921;" glyph-name="时间" d="M863.673 814.375l-0.020-0.027c-6.35 6.15-14.995 9.942-24.53 9.942-19.46 0-35.23-15.777-35.23-35.24 0-11.867 5.87-22.357 14.86-28.74l-0.025-0.027c2.745-2.61 5.465-5.25 8.145-7.932 79.375-79.075 128.72-188.61 128.72-309.944 0-121.1-49.345-230.639-128.72-309.934-79.445-78.93-188.91-128.055-309.974-128.055-121.032 0-230.534 49.125-309.864 128.055-79.19 79.295-128.247 188.834-128.247 309.934 0 121.335 49.057 230.869 128.247 309.944 79.33 79.372 188.832 128.5 309.864 128.5 43.985 0 86.445-6.487 126.49-18.555v0.003c3.8-1.412 7.92-2.182 12.215-2.182 19.465 0 35.245 15.775 35.245 35.24 0 17.020-12.070 31.222-28.12 34.517v0c-46.195 13.827-95.16 21.26-145.875 21.26-140.445 0-267.512-57.007-359.567-149.107-91.89-91.761-148.815-218.869-148.815-359.651 0-140.535 56.925-267.634 148.815-359.649 92.055-91.595 219.122-148.595 359.567-148.595 140.485 0 267.499 57 359.689 148.595 92.1 92.015 149.365 219.119 149.365 359.649 0 140.782-57.265 267.889-149.365 359.649zM785.933 480.384h-306.909v-70.277h306.909c19.4 0 35.14 15.73 35.14 35.14 0 19.407-15.74 35.137-35.14 35.137zM549.304 410.106v376.014c0 19.41-15.73 35.142-35.14 35.142-19.405 0-35.14-15.732-35.14-35.142v-376.014h70.28z" />
<glyph unicode="&#xe922;" glyph-name="套餐" d="M1022.428 646.246c0 34.847-26.107 63.201-58.189 63.201h-123.484l10.348 11.126c29.43 31.647 44.36 70.175 44.36 114.514 0 57.738-30.336 119.434-115.466 119.434-113.521 0-209.997-131.512-257.398-209.905l-4.874-8.064-4.869 8.069c-38.083 63.109-139.679 209.9-260.326 209.9-85.166 0-115.512-61.701-115.512-119.434 0-44.237 15.268-82.749 45.384-114.468l10.609-11.172h-125.573c-32.087 0-58.194-28.355-58.194-63.196v-202.081h64.579v-459.996c0-34.836 26.143-63.171 58.281-63.171h768.328c32.087 0 58.189 28.334 58.189 63.171v459.996h63.811v202.076zM189.394 836.188c0 42.040 20.060 61.624 63.14 61.624 95.437 0 187.238-136.371 213.1-178.166l6.277-10.143h-119.608c-80.082-0.005-162.908 47.38-162.908 126.684zM489.677-22.308h-363.433v466.473h363.433v-466.473zM489.677 500.879h-428.104v151.849h428.093l0.010-151.849zM569.892 719.642c33.178 53.565 120.069 178.166 210.109 178.166 42.486 0 63.14-20.516 63.14-62.72 0-81.572-82.422-125.588-159.974-125.588h-119.567l6.292 10.143zM906.291-22.308h-364.278v466.473h364.278v-466.473zM970.102 500.879h-428.088v151.849h428.088v-151.849z" />
<glyph unicode="&#xe923;" glyph-name="团队" d="M273.285 350.024c10.854 3.871 21.688 8.52 32.522 13.189-1.556 0.778-2.335 2.314-3.113 3.072-3.092 6.984-4.628 13.947-3.871 20.132l37.171 6.185c3.871 5.448 7.741 11.612 10.854 18.575 3.092 6.226 5.407 13.189 8.52 21.709 2.314 8.52 3.871 17.818 4.649 27.873 0 6.963 0 15.483-0.778 24.76-1.556 10.076-3.871 20.132-6.984 30.208-2.314 10.076-6.963 20.89-11.592 30.966-4.649 10.076-10.854 19.354-18.596 27.095-6.963 8.52-15.483 14.725-25.559 20.132-10.056 4.669-20.91 6.963-33.3 6.963-3.092 0-5.407 0-7.721 0s-5.427 0-7.741-0.778c-10.076 0-19.354-1.516-28.652-4.628-17.039-4.669-30.188-12.39-40.264-21.688-9.298-10.076-17.039-20.89-21.688-34.058-4.649-12.37-7.741-24.801-9.298-38.728-1.536-13.926-1.536-26.317-1.536-38.687 0-13.947 0.758-26.337 3.092-34.857 3.092-9.277 5.427-17.060 8.52-21.688 3.871-6.185 7.741-10.834 12.39-13.926l32.522-5.448c0-3.072 0-6.205 0-9.298 0-2.314-0.778-5.407-2.335-7.741-1.536-3.092-3.871-5.407-6.185-7.741-3.092-3.092-6.205-5.407-11.612-8.52-6.185-4.669-13.926-7.721-22.446-10.056-8.54-1.556-17.060-4.649-25.559-6.963-7.741-3.092-14.705-6.963-20.91-11.612s-10.076-11.612-11.612-20.91c-2.335-16.261-3.113-29.409-1.556-39.485 1.556-10.056 3.092-16.241 6.205-17.797 2.314-2.314 8.52-3.871 19.333-6.963 10.854-2.335 23.224-4.669 37.949-7.004 13.169-1.516 26.317-3.072 40.264-4.628 0 13.189 0.758 30.208 0.758 45.67 0.778 11.612 0.778 21.668 0.778 28.652v1.516l0.778 1.556c7.741 24.023 30.966 31.764 51.118 38.728 5.427 1.597 10.854 3.932 15.483 6.226v0zM912.835 262.533c-5.448 13.947-16.282 25.539-28.652 33.28-24.76 17.039-54.968 23.245-81.306 37.949-8.499 5.427-17.019 12.39-20.91 22.487-1.536 13.148-0.778 27.095-0.778 40.243 4.669 3.871 7.762 8.52 10.834 13.189 5.448 10.813 9.298 22.446 10.834 34.058 4.649 0.778 8.52 3.85 10.854 6.963 4.628 6.963 6.185 14.705 6.963 22.467 0 6.963-2.335 13.926-7.741 18.596 6.963 22.446 11.612 46.428 9.277 69.673-1.536 13.926-6.963 28.652-17.797 38.687-6.963 6.185-17.039 10.076-26.317 11.612-3.092 3.072-6.226 6.963-9.298 8.52-10.056 6.185-22.467 7.741-34.058 8.52-20.91-0.778-42.598-3.891-59.638-16.261-8.52-6.205-14.705-14.725-19.313-23.982-5.448-10.875-7.782-24.023-8.52-36.413-0.778-20.89 3.072-41.021 7.741-60.355-5.448-4.669-7.741-10.875-7.741-17.060 0.737-6.963 1.516-13.148 4.628-19.354 2.335-5.407 6.205-10.035 12.39-11.592 1.536-10.834 5.427-21.688 10.813-31.764 3.113-6.185 7.004-11.592 11.612-15.483 0-13.148 0.778-27.095-0.758-41.021-0.778-1.556-1.556-3.092-2.335-4.669 0-0.778 0.778-0.778 0.778-0.778 5.448-2.294 10.834-3.85 16.261-5.407 20.132-6.963 42.598-15.483 51.118-39.506l0.778-1.556v-1.516c0-6.226 0-17.039 0-27.873 0.758-12.39 0.758-27.095 0.758-38.728 55.747 0 110.715 0 165.683 0 0.020 9.257-2.294 18.555-6.164 27.075v0zM678.236 340.746c-27.095 10.834-55.767 23.245-82.084 34.058-7.741 2.314-15.483 3.871-22.446 6.205-9.298 6.205-17.818 26.317-23.265 36.393-4.628 0.778-9.277 1.556-13.926 2.294 0.778 15.503 10.076 16.282 13.926 28.652 3.891 10.056 0.778 23.982 6.226 34.058 3.85 6.205 12.37 6.205 16.261 12.39 3.85 5.427 6.185 14.705 7.741 20.91 1.536 11.612 3.871 27.853-1.556 39.465-3.85 6.963-5.407 7.762-6.963 15.483-0.778 10.076 3.092 42.578 3.871 49.562 0 17.818 0 19.354-4.669 37.13 0 0-5.407 16.282-13.926 20.931l-17.039 3.072-10.056 9.298c-41.82 25.559-86.733 7.741-110.735-2.314-34.836-10.854-56.525-44.134-41.042-116.142 2.335-12.37-6.963-17.777-6.185-24.76 1.536-14.705 1.536-49.562 15.483-58.081 1.556-0.758 10.854-3.072 10.854-2.294 1.556-14.725 3.092-28.652 4.649-43.356 3.092-9.298 11.612-10.076 13.947-23.245l-10.834-3.072c-4.649-10.076-13.169-30.208-22.467-36.393-7.741-2.314-14.705-3.871-22.446-6.205-26.337-10.813-55.747-23.224-82.063-34.058-24.003-10.076-52.634-13.947-61.174-38.707 0-17.039-1.536-57.324-1.536-79.77h229.949l17.039 114.606-13.947 29.409 32.522 15.503 27.095-15.503-15.483-30.188 27.116-113.828h219.116c0.758 22.446-0.778 62.73-0.778 79.77-8.52 24.781-37.192 28.652-61.174 38.728v0z" />
<glyph unicode="&#xe924;" glyph-name="相册" horiz-adv-x="1025" d="M541.481 21.323l0.569 487.737 397.329 138.686v-487.053l-397.898-139.37zM86.024 733.030l426.364 141.647 426.364-141.647-426.364-141.647-426.364 141.647zM483.296 21.323l-397.898 139.37v487.053l397.329-138.686 0.569-487.737z" />
<glyph unicode="&#xe925;" glyph-name="坐标" d="M511.999 962.31c-222.319 0-403.212-181.959-403.212-405.593 0-86.934 27.32-170.081 78.508-239.806l242.040-346.116c17.817-23.563 44.949-37.102 74.416-37.102 29.624 0 56.832 13.629 74.65 37.437l257.816 345.121c51.675 70.386 78.995 153.533 78.995 240.466 0 223.634-180.888 405.593-403.212 405.593zM779.82 357.981l-257.634-344.867c-6.051-8.076-14.137-9.284-18.437-9.284-4.269 0-12.335 1.208-17.655 8.198l-241.765 345.731c-42.756 58.234-65.371 127.041-65.371 198.959 0 184.964 149.411 335.461 333.040 335.461s333.040-150.497 333.040-335.461c0-71.92-22.614-140.727-65.218-198.737zM511.999 738.392c-99.68 0-180.777-81.497-180.777-181.675 0-100.203 81.096-181.701 180.777-181.701 99.685 0 180.766 81.497 180.766 181.701 0 100.178-81.081 181.675-180.766 181.675zM511.999 445.143c-60.99 0-110.604 50.046-110.604 111.574 0 61.503 49.614 111.543 110.604 111.543s110.599-50.041 110.599-111.543c0-61.528-49.609-111.574-110.599-111.574z" />
<glyph unicode="&#xe926;" glyph-name="电话" d="M411.238 637.893l-106.27-108.134c55.328-122.869 172.711-259.73 308.914-305.691l91.891 91.643c0 0 217.853-37.996 266.801-61.871 42.48-20.545 56.482-66.172 49.853-122.46-7.2-60.524-86.426-193.892-229.247-195.368-142.778-1.434-353.086 106.13-503.733 264.903-150.647 158.677-284.974 359.92-263.502 530.777 21.515 170.9 170.34 201.415 207.592 204.164 37.662 2.749 67.552-8.289 90.252-36.39 29.2-36.228 87.45-261.573 87.45-261.573zM290.557 864.121c-17.71 23.164-48.139 27.055-78.579 19.866-27.055-6.338-125.586-47.212-139.533-156.694-15.479-121.737 75.323-327.745 238.236-485.365 162.945-157.642 319.941-249.619 454.861-260.657s200.736 107.789 210.383 143.511c9.604 35.668 1.638 71.68-17.742 86.059-24.695 18.292-236.921 56.255-236.921 56.255l-96.299-94.887c-158.343 51.513-307.437 195.703-370.882 371.917l105.17 105.935c-0.054 0.011-50.941 190.938-68.694 214.059z" />
<glyph unicode="&#xe927;" glyph-name="星" d="M244.695-65.839c-43.483 0-78.733 36.79-78.733 82.17 0 1.712 0.049 3.424 0.152 5.132l15.884 264.987-164.393 211.243c-27.402 35.226-22.254 86.97 11.502 115.565 9.028 7.647 19.567 13.115 30.859 16.007l248.586 63.648 138.056 229.736c23.093 38.441 71.672 50.065 108.503 25.965 10.060-6.586 18.563-15.462 24.875-25.96l138.064-229.716 248.586-63.664c42.222-10.801 68.063-55.276 57.721-99.336-2.773-11.801-8.016-22.815-15.356-32.252l-164.385-211.235 15.389-256.713c7.012-44.876-22.163-87.183-65.167-94.503-4.141-0.7-8.335-1.065-12.534-1.073-0.127-0.008-0.266-0.008-0.397 0-9.585-0.008-19.091 1.802-28.049 5.358l-240.554 95.724-240.554-95.687c-8.962-3.555-18.465-5.378-28.049-5.362v0l-0.004-0.033z" />
<glyph unicode="&#xe928;" glyph-name="QQ2" horiz-adv-x="911" d="M911.653 261.91c-7.204 99.107-73.707 182.123-112.141 225.064 5.336 12.494 18.324 84.802-31.821 134.144 0.082 1.184 0.082 2.357 0.082 3.509 0 194.637-138.533 334.735-312.371 335.373-173.854-0.638-312.387-140.741-312.387-335.373 0-1.153-0.015-2.326 0.062-3.509-50.135-49.342-37.126-121.655-31.816-134.144-38.413-42.946-104.916-125.962-112.131-225.064-1.297-26.053 2.727-64.008 15.458-80.865 15.504-20.573 58.064 4.132 88.507 69.838 8.47-30.442 28.013-76.913 72.241-135.899-74.016-16.883-95.129-89.891-70.234-129.801 17.568-28.121 57.776-51.246 127.063-51.246 123.292 0 177.733 33.128 202.042 56.202 4.945 5.038 12.092 7.456 21.195 7.477 9.077-0.021 16.245-2.444 21.18-7.477 24.293-23.073 78.761-56.202 202.016-56.202 69.328 0 109.496 23.125 127.063 51.246 24.905 39.91 3.787 112.913-70.213 129.801 44.233 58.985 63.786 105.457 72.251 135.899 30.442-65.711 72.997-90.4 88.522-69.838 12.71 16.852 16.739 54.812 15.432 80.865v0z" />
<glyph unicode="&#xe929;" glyph-name="收货地址" d="M793.505 420.525c-4.605 20.056-9.517 39.601-14.838 58.327-5.321 18.624-14.633 34.689-27.424 47.787-8.391 7.777-17.191 13.405-26.708 16.884s-18.521 5.73-27.015 6.754c-8.493 1.126-15.656 1.33-21.489 0.819l-9.21-0.614c-5.321 0-9.926-2.047-13.712-5.935-3.581-3.888-5.628-8.084-5.628-12.586v-56.076c0-16.475 0.102-34.792 0.614-54.95v-0.614c0-2.047 1.433-4.502 4.298-7.368s5.73-4.298 8.698-4.298h114.301c4.912 0 9.414 0.102 12.996 0.409 3.786 0.102 5.628 2.763 5.628 7.675 0 0.819-0.102 1.433-0.307 1.842-0.102 0.512-0.205 1.126-0.205 1.944zM512 960c-282.836 0-511.949-229.216-511.949-512.051s229.216-511.949 511.949-511.949 511.949 229.216 511.949 511.949-229.113 512.051-511.949 512.051zM326.786 226.817c-7.675-7.982-17.089-11.665-28.14-11.665-11.256 0-20.67 3.888-28.345 11.665s-11.563 17.089-11.563 27.731c0 11.154 3.888 20.67 11.563 28.345 7.675 7.777 17.089 11.665 28.345 11.665 11.154 0 20.67-3.888 28.14-11.665 7.675-7.777 11.563-17.293 11.563-28.345 0-10.744-3.786-19.954-11.563-27.731zM562.96 262.632c-4.809-4.605-10.437-6.958-17.089-6.958h-169.558c0 24.252-6.242 43.387-18.624 57.406s-31.926 20.977-58.532 20.977c-25.275 0-44.615-6.549-58.123-19.34-13.61-12.996-20.261-32.643-20.261-58.941h-14.326c-7.061 0-12.893 2.149-17.293 6.242-4.605 4.093-6.958 10.131-6.958 17.907v320.697c0 9.824 1.842 19.647 5.628 29.061s9.107 18.112 15.861 25.889c6.958 7.777 14.838 14.121 23.945 18.931 9.107 4.605 19.033 7.061 29.778 7.061h311.59l1.126-401.741c0.102-6.958-2.354-12.689-7.163-17.191zM754.314 226.203c-7.982-7.777-17.191-11.665-28.038-11.665-11.154 0-20.67 3.888-28.14 11.665-7.675 7.777-11.563 17.293-11.563 28.345 0 10.642 3.888 19.954 11.563 27.731s17.089 11.665 28.14 11.665c10.847 0 20.056-3.888 28.038-11.665s11.87-17.089 11.87-27.731c-0.102-11.051-4.093-20.568-11.87-28.345zM841.293 287.293c0-2.456-0.102-5.321-0.614-9.005-0.409-3.479-1.126-6.958-2.149-10.437s-2.354-6.549-3.786-9.005c-1.433-2.456-3.275-3.581-5.935-3.581h-25.582c0 13.917-2.149 25.889-6.549 35.713-4.298 9.824-10.131 17.907-17.293 24.149-7.265 6.242-15.759 10.642-25.48 13.61-9.824 2.865-20.056 4.298-30.801 4.298-10.847 0-20.773-2.149-29.88-6.242-9.107-4.195-17.191-9.721-23.945-16.577-6.754-6.958-12.177-15.145-16.168-24.456-3.888-9.21-5.935-19.033-5.935-29.368h-11.154c-7.368 0-13.917 2.558-19.238 8.084-5.321 5.321-8.084 11.665-8.084 19.033v297.469c0 4.502 1.637 9.824 4.605 15.759 3.172 5.935 6.958 9.107 11.563 9.517 13.61 1.33 27.936 0.716 42.876-1.637 14.838-2.149 29.573-6.037 44.104-11.461 14.633-5.321 28.14-12.382 41.034-20.977 12.893-8.698 23.536-18.931 32.336-30.903 15.759-21.387 27.629-44.206 35.406-68.458s13.303-48.094 16.475-71.221c3.172-23.229 4.605-44.922 4.298-65.183 0.102-19.954-0.102-36.429-0.102-49.118z" />
<glyph unicode="&#xe92a;" glyph-name="红包" d="M640.271 683.218h-246.154c-32.942 0-58.757-26.706-58.757-59.643v-374.799c0-32.942 25.815-60.088 58.757-60.088h246.154c32.947 0 60.093 27.151 60.093 60.088v374.799c0 32.937-27.151 59.643-60.093 59.643zM590.403 357.12c4.895 0 13.763-3.098 13.763-8.003 0-4.89-3.103-10.563-8.003-10.563l-54.415-0.952-5.212-67.328c0-4.895-10.998-5.96-15.892-5.96s-24.003-0.635-21.443 23.685l-3.292 48.225-42.465-1.823c-4.9 0-13.44 4.71-13.44 9.6 0 4.9 4.582 12.913 9.482 12.913l47.488 2.417 0.148 34.555h-43.802c-4.9 0-8.904 4.009-8.904 8.899 0 4.895 4.004 8.904 8.904 8.904l35.799 2.872-23.782 46.095c-2.227 4.449-10.271 22.236-5.816 24.463s22.523-9.626 24.745-14.080l24.095-51.794 19.548 0.179 24.197 52.045c2.227 4.454 16.906 14.597 20.91 12.375 4.449-2.227 0.046-18.734-2.181-23.183l-21.074-45.614 39.68-0.963c4.895 0 13.123-5.985 13.123-10.88 0-4.89-8.223-9.923-13.123-9.923l-47.683-0.271-0.64-34.924 49.285-0.968zM667.095 622.080c-45.404-60.984-96.707-85.755-148.342-85.755-1.336 0-2.227 0-3.564 0-85.463 2.673-144.947 82.406-147.615 85.97-2.673 4.009-10.639 18.452-6.185 21.12 4.009 2.673 19.82-0.256 22.492-4.705 0.445-0.891 56.53-54.083 132.644-56.305 0.891 0 0 0 1.336 0 45.404 0 91.254 0.215 133.54 56.75 3.113 4.004 15.319 6.313 19.318 3.2 3.558-2.678-0.512-16.271-3.625-20.275zM512 960c-282.624 0-512-229.376-512-512s229.376-512 512-512 512 229.376 512 512-229.376 512-512 512zM747.52 220.16c0-49.152-40.448-89.6-89.6-89.6h-283.136c-49.152 0-88.064 40.448-88.064 89.6v430.592c0 49.152 38.912 89.088 88.064 89.088h283.136c49.152 0 89.6-39.936 89.6-89.088v-430.592z" />
<glyph unicode="&#xe92b;" glyph-name="余额" horiz-adv-x="1036" d="M520.924 960c-287.293 0-520.192-230.144-520.192-514.043 0-283.904 232.899-514.038 520.197-514.038 287.304 0 520.197 230.134 520.197 514.038-0.005 283.899-232.899 514.043-520.202 514.043zM367.549 739.103c38.047 31.718 122.465-35.251 152.187-32.896 29.732-2.35 114.135 64.614 152.187 32.896 38.052-31.724-46.070-104.233-46.070-104.233h-212.25c0 0.005-84.096 72.515-46.054 104.233zM633.871 597.274c0-10.388-8.499-18.801-19.016-18.801h-190.234c-10.516 0-19.026 8.412-19.026 18.801 0 10.394 8.509 18.796 19.026 18.796h190.234c10.516 0 19.016-8.402 19.016-18.796zM519.736 146.524c-147.092 0-266.322-13.117-266.322 109.85 0 91.418 65.956 235.382 160.189 303.304h212.25c94.259-67.922 160.21-211.881 160.21-303.304-0.005-122.962-119.235-109.85-266.327-109.85zM621.522 474.624c4.731 4.731 4.874 12.242 0.328 16.788-4.5 4.572-12.078 4.408-16.819-0.302l-84.803-84.782-84.808 84.782c-4.71 4.71-12.268 4.874-16.788 0.302-4.547-4.521-4.429-12.052 0.328-16.788l89.61-89.636v-6.83h-81.193c-6.671 0-12.104-5.228-12.078-11.658 0-6.41 5.386-11.653 12.104-11.653h81.167v-46.638h-81.193c-6.671 0-12.104-5.243-12.078-11.653 0-6.415 5.386-11.658 12.104-11.658h81.167v-57.871c0-6.676 5.202-12.078 11.658-12.078 6.41 0 11.658 5.407 11.658 12.078v57.871h81.193c6.666 0 12.099 5.202 12.078 11.658 0.020 6.41-5.391 11.653-12.078 11.653h-81.193v46.638h81.193c6.692 0 12.099 5.197 12.078 11.653 0.020 6.436-5.391 11.658-12.078 11.658h-81.193v6.83l89.636 89.636z" />
<glyph unicode="&#xe92c;" glyph-name="jiahao" d="M1024 445.952c0-20.296-16.45-36.745-36.749-36.745h-950.505c-20.292 0-36.745 16.45-36.745 36.745v0c0 20.296 16.454 36.745 36.745 36.745h950.505c20.3 0 36.749-16.45 36.749-36.745v0zM512 960c20.296 0 36.745-16.45 36.745-36.749v-950.51c0-20.292-16.45-36.745-36.745-36.745v0c-20.296 0-36.745 16.454-36.745 36.745v950.51c0 20.3 16.45 36.749 36.745 36.749v0z" />
<glyph unicode="&#xe92d;" glyph-name="jianhao" d="M1024 445.952c0-20.296-16.45-36.745-36.749-36.745h-950.505c-20.292 0-36.745 16.45-36.745 36.745v0c0 20.296 16.454 36.745 36.745 36.745h950.505c20.3 0 36.749-16.45 36.749-36.745v0z" />
<glyph unicode="&#xe92e;" glyph-name="品牌" d="M783.017 284.498v-86.579h-155.868l-115.651 224.21h-58.711v-137.631h64.251v-86.579h-267.581v86.579h70.241v338.862h-70.241v86.528h308.69c58.153 0 100.035-14.612 125.706-43.909 25.569-29.297 38.523-62.525 38.523-99.651 0-58.040-29.732-100.562-88.75-127.263l83.185-154.563 66.207-0.005zM452.787 503.798h45.855c56.279 0 84.598 20.081 84.598 60.37 0 19.917-6.42 34.806-19.323 44.58-12.928 9.815-30.684 14.618-53.192 14.618h-57.938v-119.567zM516.296-65.736c-282.803 0-512.855 230.098-512.855 512.906 0 282.788 230.052 512.829 512.855 512.829 282.783 0 512.824-230.042 512.824-512.829 0-282.803-230.042-512.906-512.824-512.906zM516.296 882.627c-240.128 0-435.487-195.338-435.487-435.456 0-240.189 195.359-435.543 435.487-435.543 240.113 0 435.466 195.354 435.466 435.543 0 240.118-195.354 435.456-435.466 435.456z" />
<glyph unicode="&#xe92f;" glyph-name="赞" d="M667.039 954.808c72.463 0 101.842-48.261 101.842-127.288-3.087-95.099-28.682-189.768-69.053-275.753 56.719-5.463 113.94-4.209 170.86-4.275 95.969 0 152.76-39.777 152.76-114.55 0.732-30.336-15.913-55.229-39.752-72.694l0.727-1.034c20.69-46.935 19.133-93.005-26.179-126.254l0.727-1.024c20.685-46.904 19.128-93.010-26.148-126.264l0.691-1.024c14.321-39.782 11.136-21.647 13.553-53.56 0-69.514-51.482-114.565-127.258-114.565h-152.76c-84.168 0-180.27 8.028-265.339 20.756-21.944 3.615-43.889 6.953-65.638 11.633v-6.932c0-14.054-11.407-25.462-25.462-25.462h-280.064c-14.054 0-25.462 11.407-25.462 25.462v610.97c0 14.054 11.407 25.462 25.462 25.462h280.054c14.054 0 25.462-11.407 25.462-25.462v-4.372c55.823 33.679 96.671 87.045 137.477 136.735 10.675 14.254 20.854 29.865 30.996 47.334 14.321 24.73 61.957 122.086 74.056 141.44 23.936 38.313 50.058 60.723 88.448 60.723zM56.008 547.492v-560.061h229.135v560.061h-229.135zM667.039 903.89c-50.924 0-76.38-127.283-152.755-229.115-47.078-64.604-103.828-119.562-170.926-163.215l-7.296-3.379v-486.303c108.14-26.557 220.16-30.331 330.977-34.442 0 0 101.842 0 152.76 0 50.883 0 76.349 25.457 76.349 63.647 0 38.18-25.467 38.18-25.467 63.642 0 25.457 50.918 25.457 50.918 63.642s-25.457 38.185-25.457 63.652c0 25.452 50.908 25.452 50.908 63.642 0 38.18-25.457 38.18-25.457 63.642s50.918 25.462 50.918 63.647c0 38.185-25.467 63.642-101.842 63.642-178.181 0-254.572 0-229.105 50.913 27.75 55.491 76.38 178.202 76.38 280.028 0.015 50.903-11.059 76.36-50.908 76.36z" />
<glyph unicode="&#xe930;" glyph-name="评价成功" d="M518.4 947.2c-281.692 0-505.6-223.908-505.6-505.6 0-281.697 223.908-505.6 505.6-505.6 281.697 0 505.6 223.903 505.6 505.6 0 281.692-223.903 505.6-505.6 505.6zM518.4 1.004c-245.576 0-440.591 195.016-440.591 440.596 0 245.576 195.016 440.591 440.591 440.591 245.581 0 440.596-195.016 440.596-440.591 0-245.581-195.016-440.596-440.596-440.596zM697.6 326.4c-6.4 0-70.4-83.2-179.2-83.2-102.4 0-134.4 64-160 83.2-12.8 0-19.2-6.4-25.6-6.4-19.2-19.2-12.8-38.4-12.8-38.4 12.8-25.6 76.8-96 198.4-96s211.2 96 211.2 96c0 6.4 6.4 19.2-6.4 32s-25.6 12.8-25.6 12.8zM332.8 537.6c0-28.278 22.922-51.2 51.2-51.2s51.2 22.922 51.2 51.2-22.922 51.2-51.2 51.2-51.2-22.922-51.2-51.2zM614.4 537.6c0-28.278 22.922-51.2 51.2-51.2s51.2 22.922 51.2 51.2-22.922 51.2-51.2 51.2-51.2-22.922-51.2-51.2z" />
<glyph unicode="&#xe931;" glyph-name="作品(1)" d="M320.189 674.417c-42.9 0-77.773-35.185-77.773-78.403 0-43.223 34.867-78.413 77.773-78.413 42.875 0 77.752 35.185 77.752 78.413 0 43.208-34.867 78.403-77.752 78.403zM320.189 550.881c-24.684 0-44.733 20.255-44.733 45.138s20.076 45.112 44.733 45.112c24.653 0 44.733-20.209 44.733-45.112s-20.070-45.138-44.733-45.138zM955.832 948.803h-880.015c-31.918 0-57.897-31.908-57.897-71.112v-870.615c0-39.142 25.979-71.076 57.897-71.076h880.010c31.918 0 57.928 31.892 57.928 71.076v870.615c0.005 39.158-25.979 71.112-57.923 71.112zM75.776-5.233c-5.514 0-9.969 5.54-9.969 12.298v95.933l269.993 239.498 83.077-102.042-173.394-245.704-169.708 0.015zM965.847 7.066c0-6.758-4.465-12.298-10.061-12.298h-646.948l329.144 466.447 327.834-328.146v-125.957l0.031-0.046zM965.847 216.765l-330.132 330.988-185.385-262.702-113.664 139.551-270.858-240.543v693.658c0 6.764 4.46 12.293 9.969 12.293h880.010c5.55 0 10.061-5.535 10.061-12.293v-660.951z" />
<glyph unicode="&#xe932;" glyph-name="对号" horiz-adv-x="1465" d="M1460.149 872.143l-79.495 79.324c-19.883 19.842-56.818 15.083-82.496-10.613l-735.809-736.356-389.758 371.226c-26.679 25.404-63.993 29.499-83.353 9.146l-77.391-81.377c-19.361-20.35-13.423-57.453 13.251-82.85l488.874-465.604c9.85-9.387 21.153-15.854 32.463-19.27 20.507-8.453 48.558-1.372 69.28 19.372l833.931 834.537c25.685 25.708 30.385 62.625 10.502 82.464z" />
<glyph unicode="&#xe933;" glyph-name="V0" d="M882.099 960h-735.084c-81.152 0-147.016-65.864-147.016-147.016v-735.084c0-81.157 65.864-147.021 147.016-147.021h735.084c81.157 0 147.021 65.864 147.021 147.021v735.084c0 81.152-65.864 147.016-147.021 147.016zM955.617 188.16c0-60.867-49.403-110.259-110.269-110.259-60.861 0-110.259 49.393-110.259 110.259v147.021c0 60.861 49.398 110.259 110.259 110.259 60.867 0 110.269-49.398 110.269-110.259v-147.021zM918.861 665.969h-95.053l-440.095-548.454c-20.214-25.068-50.575-39.613-82.698-39.613-44.472 0-80.492 36.019-80.492 80.492v654.592h-110.259c-20.291 0-36.751 16.466-36.751 36.756s16.461 36.751 36.751 36.751h220.529c20.285 0 36.751-16.461 36.751-36.751v-573l310.646 389.228h-53.371c-20.285 0-36.756 16.461-36.756 36.751s16.471 36.751 36.756 36.751h294.042c20.285 0 36.756-16.461 36.756-36.751s-16.471-36.751-36.756-36.751zM845.343 371.937c-20.285 0-36.751-16.471-36.751-36.756v-147.021c0-20.291 16.466-36.756 36.751-36.756 20.296 0 36.756 16.466 36.756 36.756v147.021c0 20.285-16.461 36.756-36.756 36.756z" />
<glyph unicode="&#xe934;" glyph-name="V1" d="M877.716 960h-731.428c-80.753 0-146.289-65.536-146.289-146.289v-731.428c0-80.742 65.536-146.284 146.289-146.284h731.428c80.742 0 146.284 65.541 146.284 146.284v731.428c0 80.753-65.541 146.289-146.284 146.289zM914.284 82.284h-146.284c-20.188 0-36.577 16.384-36.577 36.577 0 20.183 16.384 36.567 36.577 36.567h36.577v219.433h-36.577c-20.188 0-36.577 16.379-36.577 36.567 0 20.193 16.384 36.577 36.577 36.577h73.139c20.188 0 36.577-16.379 36.577-36.577v-256h36.572c20.183 0 36.577-16.379 36.577-36.567-0.005-20.193-16.394-36.577-36.582-36.577zM914.284 667.428h-94.572l-437.903-545.72c-20.116-24.945-50.324-39.424-82.289-39.424-44.252 0-80.092 35.84-80.092 80.092v651.336h-109.716c-20.188 0-36.572 16.384-36.572 36.577 0 20.188 16.384 36.572 36.572 36.572h219.428c20.188 0 36.572-16.384 36.572-36.572v-570.148l309.105 387.287h-53.1c-20.183 0-36.577 16.384-36.577 36.572s16.389 36.572 36.577 36.572h292.572c20.183 0 36.577-16.384 36.577-36.572s-16.394-36.572-36.582-36.572z" />
<glyph unicode="&#xe935;" glyph-name="V2" d="M877.896 958.72h-730.516c-80.645 0-146.099-65.454-146.099-146.099v-730.516c0-80.65 65.454-146.104 146.099-146.104h730.516c80.65 0 146.104 65.454 146.104 146.104v730.516c0 80.645-65.454 146.099-146.104 146.099zM950.943 264.735c0-20.163-16.358-36.536-36.521-36.536h-109.583v-73.042h109.583c20.163 0 36.521-16.369 36.521-36.536 0-20.157-16.358-36.521-36.521-36.521h-146.104c-20.163 0-36.521 16.364-36.521 36.521v146.109c0 20.157 16.358 36.521 36.521 36.521h109.573v73.052h-109.573c-20.163 0-36.521 16.364-36.521 36.536 0 20.157 16.358 36.521 36.521 36.521h146.104c20.163 0 36.521-16.364 36.521-36.521v-146.104zM914.427 666.511h-94.449l-437.371-545.034c-20.086-24.909-50.258-39.368-82.181-39.368-44.196 0-79.995 35.794-79.995 79.985v650.527h-109.573c-20.168 0-36.526 16.358-36.526 36.521 0 20.168 16.358 36.526 36.526 36.526h219.151c20.163 0 36.526-16.358 36.526-36.526v-569.436l308.716 386.806h-53.038c-20.163 0-36.521 16.364-36.521 36.526s16.358 36.526 36.521 36.526h292.209c20.163 0 36.521-16.364 36.521-36.526s-16.358-36.526-36.516-36.526z" />
<glyph unicode="&#xe936;" glyph-name="V3" d="M881.004 960h-734.167c-81.055 0-146.836-65.782-146.836-146.836v-734.172c0-81.055 65.782-146.836 146.836-146.836h734.172c81.055 0 146.836 65.782 146.836 146.836v734.172c-0.005 81.055-65.787 146.836-146.842 146.836zM954.424 115.707c0-20.27-16.445-36.71-36.71-36.71h-146.836c-20.26 0-36.71 16.44-36.71 36.71 0 20.26 16.451 36.705 36.71 36.705h110.126v73.421h-110.126c-20.26 0-36.71 16.445-36.71 36.705 0 20.27 16.451 36.71 36.71 36.71h110.126v73.421h-110.126c-20.26 0-36.71 16.445-36.71 36.705 0 20.265 16.451 36.71 36.71 36.71h146.836c20.265 0 36.71-16.445 36.71-36.71v-293.668zM917.714 666.332h-94.93l-439.547-547.768c-20.188-25.037-50.514-39.572-82.596-39.572-44.416 0-80.389 35.973-80.389 80.394v653.778h-110.126c-20.265 0-36.705 16.445-36.705 36.71s16.44 36.705 36.705 36.705h220.252c20.265 0 36.705-16.44 36.705-36.705v-572.36l310.262 388.818h-53.299c-20.265 0-36.71 16.44-36.71 36.705s16.445 36.705 36.71 36.705h293.668c20.265 0 36.71-16.44 36.71-36.705s-16.445-36.705-36.71-36.705z" />
<glyph unicode="&#xe937;" glyph-name="V4" d="M877.716 961.28h-731.433c-80.748 0-146.284-65.536-146.284-146.284v-731.428c0-80.748 65.536-146.284 146.284-146.284h731.428c80.748 0 146.284 65.536 146.284 146.284v731.428c0.005 80.748-65.531 146.284-146.278 146.284zM950.856 120.136c0-20.188-16.379-36.572-36.572-36.572-20.183 0-36.572 16.379-36.572 36.572v109.716h-109.711c-20.183 0-36.572 16.384-36.572 36.577v146.284c0 20.183 16.384 36.572 36.572 36.572s36.572-16.384 36.572-36.572v-109.716h73.144v109.716c0 20.183 16.384 36.572 36.572 36.572s36.572-16.384 36.572-36.572v-292.577zM914.284 668.708h-94.572l-437.908-545.72c-20.116-24.934-50.324-39.419-82.284-39.419-44.252 0-80.092 35.84-80.092 80.097v651.331h-109.711c-20.188 0-36.572 16.379-36.572 36.572s16.384 36.572 36.572 36.572h219.428c20.188 0 36.572-16.384 36.572-36.572v-570.225l309.1 387.364h-53.1c-20.188 0-36.572 16.384-36.572 36.572s16.379 36.572 36.572 36.572h292.572c20.188 0 36.572-16.384 36.572-36.572s-16.384-36.572-36.577-36.572z" />
<glyph unicode="&#xe938;" glyph-name="V5" d="M877.727 959.155h-731.438c-80.753 0-146.289-65.536-146.289-146.289v-731.438c0-80.748 65.536-146.284 146.289-146.284h731.438c80.748 0 146.284 65.541 146.284 146.284v731.438c0 80.753-65.541 146.289-146.284 146.289zM914.289 300.867c20.193 0 36.577-16.379 36.577-36.577v-146.284c0-20.188-16.379-36.577-36.577-36.577h-146.284c-20.193 0-36.572 16.384-36.572 36.577s16.374 36.567 36.572 36.567h109.722v73.149h-109.722c-20.193 0-36.572 16.379-36.572 36.572v146.278c0 20.193 16.374 36.572 36.572 36.572h146.284c20.193 0 36.577-16.379 36.577-36.572 0-20.183-16.379-36.572-36.577-36.572h-109.706v-73.139h109.706zM914.289 666.578h-94.572l-437.908-545.725c-20.111-24.945-50.319-39.424-82.289-39.424-44.252 0-80.092 35.845-80.092 80.097v651.341h-109.711c-20.188 0-36.572 16.384-36.572 36.572s16.384 36.572 36.572 36.572h219.428c20.188 0 36.572-16.384 36.572-36.572v-570.153l309.105 387.297h-53.1c-20.188 0-36.572 16.384-36.572 36.572s16.379 36.577 36.572 36.577h292.572c20.193 0 36.577-16.384 36.577-36.577-0.005-20.188-16.384-36.577-36.582-36.577z" />
<glyph unicode="&#xe939;" glyph-name="V6" d="M804.572 155.428h73.144v73.139h-73.144v-73.139zM877.716 960h-731.433c-80.748 0-146.284-65.536-146.284-146.284v-731.428c0-80.753 65.536-146.289 146.284-146.289h731.428c80.753 0 146.289 65.536 146.289 146.284v731.433c0 80.748-65.536 146.284-146.284 146.284zM914.284 301.716c20.188 0 36.572-16.384 36.572-36.572v-146.289c0-20.183-16.379-36.572-36.572-36.572h-146.284c-20.183 0-36.572 16.384-36.572 36.572v292.577c0 20.183 16.384 36.572 36.572 36.572h146.284c20.188 0 36.572-16.384 36.572-36.572s-16.379-36.577-36.572-36.577h-109.716v-73.139h109.716zM914.284 667.428h-94.572l-437.908-545.72c-20.116-24.945-50.324-39.424-82.284-39.424-44.252 0-80.092 35.84-80.092 80.097v651.336h-109.711c-20.188 0-36.572 16.384-36.572 36.572s16.384 36.572 36.572 36.572h219.428c20.188 0 36.572-16.384 36.572-36.572v-570.148l309.1 387.287h-53.1c-20.188 0-36.572 16.384-36.572 36.572s16.379 36.572 36.572 36.572h292.572c20.188 0 36.572-16.384 36.572-36.572s-16.384-36.572-36.577-36.572z" />
<glyph unicode="&#xe93a;" glyph-name="保" d="M455.132 722.473h288.85v-145.843h-288.85v145.843zM894.495 962.104h-763.141c-72.986 0-132.116-59.131-132.116-132.116v-763.146c0-72.986 59.131-132.127 132.116-132.127h763.141c72.991 0 132.127 59.141 132.127 132.127v763.146c-0.148 72.986-59.269 132.116-132.127 132.116zM270.188 73.267h-56.704v437.489c-22.564-41.564-46.275-80.123-70.984-115.84-7.429 22.144-15.57 43.566-24.428 64.707 70.272 104.98 124.979 232.387 163.83 382.075l58.281-17.28c-21.571-69.417-45-134.262-70.134-194.678v-556.472h0.138zM869.228 131.543c-98.852 59.843-174.403 140.831-226.964 242.811v-305.091h-57.559v308.239c-63.708-114.56-143.263-201.825-238.961-261.673-12.14 14.705-26.849 30.715-44.14 48.138 93.558 51.558 169.4 123.546 227.82 215.951h-206.536v53.571h261.668v106.409h-130.12v-35.42h-59.843v302.659h439.772v-297.088h-59.843v29.993h-132.403v-106.404h260.096v-53.565h-214.39c48.282-80.42 121.836-143.688 220.682-189.967-16.292-22.861-29.435-42.276-39.281-58.563z" />
<glyph unicode="&#xe93b;" glyph-name="关闭" d="M8.289 442.65c0-281.605 228.285-509.891 509.891-509.891s509.891 228.285 509.891 509.891-228.285 509.891-509.891 509.891-509.891-228.285-509.891-509.891zM571.284 556.421l74.844 72.489c0 0 27.351 19.533 46.269 1.408 18.903-18.12 63.252-40.018 31.724-80.988l-125.266-122.911 121.334-123.689c0 0 12.6-18.924-2.371-38.61-14.971-19.697-47.043-67.845-76.421-41.759-36.101 32.051-120.545 126.843-120.545 126.843l-126.259-121.723c0 0-27.924-31.37-61.030 2.371-33.823 34.473-40.146 54.124-23.47 75.628 18.806 24.253 130.002 124.093 130.002 124.093l-125.266 126.459c0 0-13.788 26.394 6.697 48.456 20.48 22.057 41.759 48.85 70.907 26.783 29.153-22.062 126.454-126.065 126.454-126.065l52.398 51.215z" />
</font>
</defs>
</svg>
